<?xml version="1.0" encoding="UTF-8" standalone="no"?>
<!-- Created with Inkscape (http://www.inkscape.org/) -->

<svg
   xmlns:dc="http://purl.org/dc/elements/1.1/"
   xmlns:cc="http://creativecommons.org/ns#"
   xmlns:rdf="http://www.w3.org/1999/02/22-rdf-syntax-ns#"
   xmlns:svg="http://www.w3.org/2000/svg"
   xmlns="http://www.w3.org/2000/svg"
   xmlns:xlink="http://www.w3.org/1999/xlink"
   xmlns:sodipodi="http://sodipodi.sourceforge.net/DTD/sodipodi-0.dtd"
   xmlns:inkscape="http://www.inkscape.org/namespaces/inkscape"
   width="210mm"
   height="297mm"
   viewBox="0 0 744.09448819 1052.3622047"
   id="svg2"
   version="1.1"
   inkscape:version="0.91 r13725"
   sodipodi:docname="drawing.svg"
   inkscape:export-filename="C:\app\GIP\logo\logo.png"
   inkscape:export-xdpi="90"
   inkscape:export-ydpi="90">
  <defs
     id="defs4">
    <linearGradient
       inkscape:collect="always"
       id="linearGradient4197">
      <stop
         style="stop-color:#07c500;stop-opacity:1;"
         offset="0"
         id="stop4199" />
      <stop
         id="stop4207"
         offset="0.19133456"
         style="stop-color:#8bb300;stop-opacity:0.93725491" />
      <stop
         id="stop4205"
         offset="0.73468775"
         style="stop-color:#048200;stop-opacity:0.76530612" />
      <stop
         style="stop-color:#08d500;stop-opacity:0"
         offset="1"
         id="stop4201" />
    </linearGradient>
    <linearGradient
       inkscape:collect="always"
       id="linearGradient4189">
      <stop
         style="stop-color:#07c500;stop-opacity:1;"
         offset="0"
         id="stop4191" />
      <stop
         style="stop-color:#07c500;stop-opacity:0;"
         offset="1"
         id="stop4193" />
    </linearGradient>
    <radialGradient
       inkscape:collect="always"
       xlink:href="#linearGradient4189"
       id="radialGradient4195"
       cx="-398.57157"
       cy="803.54228"
       fx="-398.57157"
       fy="803.54228"
       r="538.57213"
       gradientTransform="matrix(1.0106101,0,0,0.10079692,9.9431563,728.26197)"
       gradientUnits="userSpaceOnUse" />
    <linearGradient
       inkscape:collect="always"
       xlink:href="#linearGradient4197"
       id="linearGradient4203"
       x1="-505.71429"
       y1="-384.78064"
       x2="-511.42856"
       y2="735.21936"
       gradientUnits="userSpaceOnUse" />
  </defs>
  <sodipodi:namedview
     id="base"
     pagecolor="#ffffff"
     bordercolor="#666666"
     borderopacity="1.0"
     inkscape:pageopacity="0.0"
     inkscape:pageshadow="2"
     inkscape:zoom="0.175"
     inkscape:cx="1134.776"
     inkscape:cy="793.42299"
     inkscape:document-units="px"
     inkscape:current-layer="layer1"
     showgrid="false"
     showborder="false"
     inkscape:window-width="1366"
     inkscape:window-height="705"
     inkscape:window-x="-8"
     inkscape:window-y="-8"
     inkscape:window-maximized="1" />
  <metadata
     id="metadata7">
    <rdf:RDF>
      <cc:Work
         rdf:about="">
        <dc:format>image/svg+xml</dc:format>
        <dc:type
           rdf:resource="http://purl.org/dc/dcmitype/StillImage" />
        <dc:title></dc:title>
      </cc:Work>
    </rdf:RDF>
  </metadata>
  <g
     inkscape:label="Layer 1"
     inkscape:groupmode="layer"
     id="layer1">
    <path
       style="opacity:1;fill:#07c500;fill-opacity:1"
       d="M -431.42773 -410.74414 A 577.14288 577.14288 0 0 0 -1008.5723 166.40039 A 577.14288 577.14288 0 0 0 -808.82031 602.61719 L -788.0918 590.32422 L -780.17383 581.76758 L -768.43555 576.0625 L -763.52148 571.30859 L -758.33398 568.14062 L -739.49805 549.44141 L -739.49805 546.27148 L -723.11914 527.25781 L -716.56641 521.55273 L -714.38281 512.36133 L -697.45703 492.39648 L -697.45703 484.47266 L -680.25781 453.41406 L -680.25781 448.66016 L -674.52539 446.125 L -664.9707 411.26367 L -666.0625 390.98242 L -661.14844 383.05859 C -662.24041 365.31107 -664.3338 353.69055 -667.42773 348.19727 L -662.24023 324.11133 L -660.05664 322.84375 L -663.87891 311.11719 L -670.1582 306.68164 L -676.16406 284.49609 L -681.34961 284.49609 C -686.08151 288.29913 -689.63014 292.84105 -691.99609 298.12305 L -703.18945 300.66016 L -708.10352 307.94922 L -713.01758 309.84961 L -717.11328 315.87109 L -746.05078 340.27344 L -773.07617 356.75391 L -776.89844 361.19141 L -797.09961 370.38086 L -799.83008 366.89648 L -817.0293 370.38086 L -826.03711 364.35938 L -828.76758 356.75391 L -835.04688 361.19141 L -846.78516 349.46484 L -847.87695 337.73828 L -853.88281 333.93555 C -855.88477 332.66787 -858.5229 329.39333 -861.79883 324.11133 L -860.70703 315.87109 L -869.16992 305.41406 L -866.98633 298.12305 L -871.90039 280.05859 L -862.89062 274.03711 L -865.89453 262.62891 L -870.80859 259.77734 L -870.80859 252.16992 L -862.89062 234.74023 L -869.16992 225.54883 L -865.89453 213.82422 L -859.07031 209.38672 L -863.98242 200.83008 L -863.98242 196.39258 L -857.97656 182.76562 L -859.07031 171.03906 L -851.69922 150.75586 L -848.96875 146.31836 L -850.06055 138.39648 L -835.04688 94.34375 L -831.22461 94.34375 L -827.12891 78.181641 L -820.57812 70.576172 C -818.21218 67.829532 -816.66353 64.977451 -815.93555 62.019531 L -818.93945 54.728516 C -816.20951 51.981876 -813.57138 48.074626 -811.02344 43.003906 L -808.29297 41.736328 L -807.20117 43.003906 L -805.83594 35.396484 C -796.91813 26.522724 -791.91229 17.861356 -790.82031 9.4101562 L -777.99023 -4.2167969 L -761.33789 -19.113281 L -758.88086 -25.134766 C -755.42293 -25.768606 -749.87235 -30.100266 -742.22852 -38.128906 L -741.13672 -36.861328 C -730.76294 -47.425328 -724.39329 -53.234616 -722.02734 -54.291016 L -705.91992 -61.263672 L -703.18945 -64.75 L -696.91016 -66.017578 L -688.99414 -71.720703 L -677.80078 -72.990234 L -671.25 -71.720703 L -664.9707 -69.185547 L -651.04883 -70.453125 L -643.13086 -67.285156 L -642.03906 -63.482422 L -640.94727 -64.75 L -638.2168 -57.460938 L -634.39453 -57.460938 L -625.93164 -41.296875 L -629.20898 -33.375 L -628.11719 -19.113281 L -628.11719 -4.2167969 L -634.39453 3.3886719 L -630.8457 11.945312 L -623.20312 9.4101562 L -616.92383 10.677734 L -616.92383 17.650391 L -620.19922 26.839844 L -609.2793 54.728516 L -612.82812 58.849609 C -613.73811 60.117289 -618.10581 62.652038 -625.93164 66.455078 L -628.11719 76.914062 L -627.02539 88.640625 L -631.9375 98.78125 C -639.94533 102.79557 -646.31693 106.70477 -651.04883 110.50781 L -653.23242 116.5293 L -663.87891 112.4082 C -669.33879 118.32404 -672.70454 123.81795 -673.97852 128.88867 L -686.81055 130.15625 L -691.99609 119.69727 L -690.08594 110.50781 L -695.27344 97.513672 L -687.90234 76.914062 L -688.99414 67.722656 L -686.81055 51.560547 L -686.81055 35.396484 L -684.08008 9.4101562 L -688.99414 -10.238281 L -691.99609 -15.943359 L -694.18164 -15.943359 L -701.82422 -20.380859 L -716.02148 -20.380859 C -727.85123 -14.253739 -734.12944 -10.344537 -734.85742 -8.6542969 L -737.31445 -8.6542969 L -779.08203 39.833984 L -784.26953 53.460938 L -788.0918 55.998047 L -789.18359 63.919922 L -802.01367 80.083984 L -805.83594 102.26758 L -811.56836 109.55664 C -813.75231 112.51456 -815.20756 115.36664 -815.93555 118.11328 L -818.93945 130.15625 L -824.94531 130.15625 L -824.94531 143.15039 L -828.76758 146.31836 L -832.86133 175.47656 L -839.95898 182.76562 L -841.05273 191.63867 L -838.86719 198.92773 L -842.96289 211.28711 L -841.05273 234.74023 L -846.78516 240.44531 L -848.96875 252.16992 L -845.14648 263.89648 L -844.05469 278.79102 L -829.85938 307.94922 L -826.03711 318.40625 L -812.11523 327.28125 L -821.12305 327.28125 L -821.12305 336.4707 L -809.92969 339.00586 L -784.26953 336.4707 L -780.7207 337.73828 C -775.26082 334.78036 -770.61879 331.29557 -766.79688 327.28125 L -764.06836 327.28125 L -757.78906 314.28711 L -737.31445 301.92773 L -732.12695 297.17383 C -730.67098 295.69487 -726.03091 293.05304 -718.20508 289.25 L -718.20508 285.76367 L -709.19531 283.22852 C -708.64932 280.05932 -706.10264 276.36232 -701.55273 272.13672 C -696.82084 267.91112 -692.63406 265.79883 -688.99414 265.79883 C -684.99023 256.92507 -680.71397 250.37404 -676.16406 246.14844 L -676.16406 228.71875 L -653.23242 202.09766 L -645.04297 198.92773 L -624.29492 182.76562 L -616.92383 181.49805 L -607.91406 189.10352 L -604.09375 182.76562 L -592.90039 189.10352 L -600.27148 212.55469 L -605.18555 213.82422 L -604.09375 283.22852 L -601.36328 287.66602 L -601.36328 304.14453 L -605.18555 312.38477 L -604.09375 327.28125 L -606.82227 332.03516 L -606.82227 346.29492 L -620.19922 389.08008 L -626.47852 416.96875 L -630.30078 424.25781 L -630.30078 429.96289 L -634.39453 439.1543 C -640.03641 448.23934 -642.94886 453.62617 -643.13086 455.31641 L -644.49609 452.14648 L -645.58789 456.58398 L -654.32422 463.55664 L -658.41797 472.74609 L -663.33203 478.76758 L -668.51953 491.76172 L -676.16406 501.9043 L -680.25781 511.09375 C -685.17171 515.53063 -690.17755 521.34187 -695.27344 528.52539 L -705.37305 531.69336 L -704.28125 540.25 C -709.37714 544.68688 -713.47247 547.32871 -716.56641 548.17383 L -718.20508 551.97656 L -718.20508 557.68164 L -728.30469 562.43555 L -734.31055 572.89453 L -739.49805 574.16211 L -741.13672 580.5 L -770.07422 599.19727 L -775.25977 605.21875 L -779.08203 603.95117 L -789.18359 616.94531 L -792.28711 616.14453 A 577.14288 577.14288 0 0 0 -431.42773 743.54297 A 577.14288 577.14288 0 0 0 145.71484 166.40039 A 577.14288 577.14288 0 0 0 -431.42773 -410.74414 z M -195.9668 -108.80078 L -190.50586 -104.36523 L -135.08984 -98.34375 L -133.45117 -97.076172 L -79.125 -87.884766 L -75.302734 -77.742188 L -69.023438 -72.990234 L -58.650391 -79.644531 L -56.193359 -79.644531 L -51.279297 -82.179688 L -46.09375 -79.644531 L -37.357422 -79.644531 L -33.261719 -72.990234 L -30.53125 -77.742188 L -18.248047 -76.158203 L -14.425781 -71.720703 C -2.2320412 -69.607903 5.4119253 -65.278196 8.5058594 -58.728516 L 29.798828 -55.558594 L 28.707031 -51.121094 L 32.529297 -47.001953 L 37.716797 -47.001953 L 42.902344 -43.515625 C 44.540309 -42.459225 48.727081 -41.086724 55.460938 -39.396484 L 59.556641 -33.375 L 69.382812 -32.107422 L 75.662109 -12.775391 L 70.476562 -0.4140625 C 69.748578 0.85361748 69.019 5.3955307 68.291016 13.212891 L 71.839844 21.136719 L 60.648438 44.271484 C 59.010472 47.651964 56.917086 50.398919 54.369141 52.511719 C 51.821195 54.624519 47.362052 57.581726 40.992188 61.384766 L 33.621094 65.1875 L 4.6835938 88.640625 L -36.265625 113.99414 L -43.089844 114.31055 L -48.822266 114.94336 C -50.460231 115.15464 -53.736495 116.73935 -58.650391 119.69727 L -63.564453 118.42969 L -67.386719 123.50195 C -68.478695 124.76963 -73.118768 127.83197 -81.308594 132.69141 L -97.142578 135.86133 L -109.42773 146.31836 L -166.48242 165.01758 L -169.21289 162.48242 L -184.22852 169.77148 L -189.41406 169.77148 L -195.9668 179.91211 L -195.9668 196.39258 L -198.42383 211.28711 L -198.42383 228.71875 L -206.06836 236.00781 L -203.33789 239.17773 L -202.24609 244.88086 L -204.42969 247.41602 L -207.16016 267.06641 L -204.42969 269.60156 L -211.25391 278.79102 L -206.06836 284.49609 L -210.16211 290.51758 L -211.25391 306.68164 L -216.16797 312.38477 L -215.07617 320.30859 L -222.44727 339.00586 L -222.44727 353.90234 L -236.36914 387.8125 L -241.55664 396.68555 C -243.19461 399.43219 -245.37943 404.9261 -248.10938 413.16602 L -253.02148 415.70117 L -253.02148 421.40625 L -289.87695 464.18945 L -311.16992 477.18359 L -320.17969 477.18359 L -321.27148 480.66992 L -331.37109 480.66992 L -338.19727 474.64844 C -337.46928 467.25364 -336.10352 461.86681 -334.10156 458.48633 C -336.64951 453.41561 -339.6534 449.50641 -343.11133 446.75977 L -338.19727 437.88477 L -321.27148 421.40625 L -313.90039 418.87109 L -304.07227 418.87109 L -297.24805 430.5957 C -284.50832 419.39786 -277.40909 410.94675 -275.95312 405.24219 L -270.49414 402.70703 L -272.13281 398.27148 L -266.94531 387.8125 L -264.21484 386.54492 L -263.12305 380.52344 L -259.30078 377.35352 L -258.20898 372.91797 L -258.20898 359.92383 L -250.29297 353.90234 L -253.02148 350.73242 L -246.4707 340.27344 L -246.4707 336.4707 L -242.92188 322.84375 L -241.2832 312.06836 C -240.55522 308.4766 -238.91709 303.82761 -236.36914 298.12305 L -239.09961 294.95508 L -235.27734 291.78516 L -239.09961 287.66602 L -234.18555 285.76367 L -236.36914 281.96094 L -230.0918 252.16992 L -230.0918 241.71289 L -226.26953 229.98633 L -231.18359 225.54883 L -226.26953 224.28125 L -221.08203 209.38672 L -232.27539 189.10352 L -235.27734 174.20898 L -235.27734 169.77148 L -232.27539 162.48242 L -218.35156 150.75586 C -216.7136 145.89642 -215.62216 143.36167 -215.07617 143.15039 L -217.25977 137.12891 L -216.16797 130.15625 L -215.07617 128.88867 L -215.07617 113.99414 L -222.44727 107.97266 L -219.99023 104.80273 L -221.08203 91.808594 L -217.25977 83.886719 L -219.99023 80.083984 L -225.17773 80.083984 L -221.08203 67.722656 L -218.35156 66.455078 L -222.44727 63.919922 L -225.17773 50.292969 L -230.0918 49.025391 L -226.26953 43.003906 L -230.0918 37.298828 L -230.0918 29.375 L -234.18555 26.839844 C -232.91157 24.093204 -231.91158 20.608412 -231.18359 16.382812 L -237.46094 11.945312 L -251.38477 23.671875 L -251.38477 28.107422 L -262.03125 37.298828 L -269.40234 45.855469 L -283.32422 53.460938 L -302.16211 74.378906 L -307.34766 67.722656 L -307.34766 63.919922 L -312.26172 59.482422 L -311.44336 53.779297 C -311.26136 52.300337 -308.80416 46.171764 -304.07227 35.396484 L -292.33398 23.671875 L -287.14648 16.382812 L -266.94531 3.3886719 L -264.21484 -2.9492188 L -259.30078 -2.9492188 C -254.93287 -7.3860987 -251.56712 -9.8157213 -249.20117 -10.238281 L -245.37891 -15.943359 C -235.18712 -21.647919 -229.72603 -25.134664 -228.99805 -26.402344 L -228.99805 -30.839844 L -233.36719 -39.712891 C -234.64116 -42.459531 -238.1898 -47.318776 -244.01367 -54.291016 L -246.4707 -67.285156 L -244.01367 -72.990234 L -228.99805 -76.158203 C -221.53621 -87.567323 -213.89419 -96.018439 -206.06836 -101.51172 L -195.9668 -108.80078 z M -319.35938 -91.371094 L -314.44531 -89.152344 L -313.35352 -76.158203 L -301.61523 -71.720703 L -301.61523 -67.285156 L -309.53125 -61.263672 L -311.7168 -53.023438 C -324.45653 -47.741438 -336.01294 -40.769902 -346.38672 -32.107422 C -351.8466 -24.501342 -356.48668 -19.535017 -360.30859 -17.210938 L -393.3418 1.4863281 L -389.24609 7.5078125 L -397.16406 26.839844 C -397.71005 32.544404 -399.34818 39.410813 -402.07812 47.439453 L -405.62695 57.898438 L -416.27344 115.26172 L -423.37109 169.77148 L -427.46484 168.50391 L -427.46484 211.28711 L -430.19531 211.28711 L -427.46484 218.25977 L -428.55859 225.54883 L -425.00781 275.62305 L -426.37305 280.05859 L -421.1875 285.76367 L -394.43359 283.22852 L -387.88086 286.08008 C -383.14896 288.19288 -379.87465 290.09492 -378.05469 291.78516 C -387.51849 307.63116 -394.25194 315.65981 -398.25586 315.87109 L -400.43945 321.57617 L -408.35547 320.30859 L -416.27344 333.30273 L -422.2793 334.57031 L -425.82812 339.95703 C -426.9201 341.43599 -430.74111 344.6054 -437.29297 349.46484 L -444.11914 348.19727 L -458.04102 353.90234 L -480.42578 356.75391 L -522.4668 365.62891 L -532.56836 370.38086 L -540.21289 364.35938 L -546.49023 366.89648 L -548.12891 349.46484 L -531.47656 332.03516 L -528.74609 327.91406 C -527.83611 326.64638 -525.0151 324.53409 -520.2832 321.57617 L -518.37305 314.28711 L -517.28125 317.13867 L -504.99609 307.94922 L -488.34375 304.14453 L -482.06445 305.41406 L -473.60156 301.29297 C -470.68962 300.02529 -466.68574 296.85588 -461.58984 291.78516 L -461.58984 283.22852 L -465.41211 277.52344 L -463.22852 250.90234 L -465.41211 246.14844 L -461.58984 234.74023 L -463.22852 216.99219 L -466.50391 213.82422 L -461.58984 205.26562 L -463.22852 196.39258 L -460.22461 185.93359 L -463.22852 179.91211 C -459.95259 171.67219 -456.40395 165.22824 -452.58203 160.58008 L -458.04102 152.02344 L -452.58203 135.86133 C -453.12802 133.11469 -455.67471 129.62794 -460.22461 125.40234 L -452.58203 112.4082 L -463.22852 106.07031 L -458.04102 96.246094 L -460.22461 83.886719 L -458.04102 67.722656 L -458.04102 59.482422 L -451.48828 50.292969 C -450.03231 39.517689 -448.30469 31.699284 -446.30273 26.839844 L -442.48047 23.671875 L -447.39453 7.5078125 L -444.11914 -2.9492188 L -452.58203 -6.7539062 L -469.23438 -1.0488281 L -477.15039 7.5078125 C -479.69834 8.9867725 -482.15553 10.888811 -484.52148 13.212891 L -489.43555 13.212891 L -494.07617 4.3398438 C -495.53214 1.5932038 -497.3512 -4.7456214 -499.53516 -14.675781 L -494.34961 -25.767578 C -491.98366 -30.204458 -486.97782 -32.74116 -479.33398 -33.375 L -479.33398 -38.128906 L -475.51172 -39.396484 L -471.96289 -45.099609 L -466.50391 -45.099609 C -460.86203 -48.902649 -455.49238 -53.446516 -450.39648 -58.728516 L -441.38867 -59.996094 C -433.19885 -66.123214 -428.55682 -69.185547 -427.46484 -69.185547 L -419.54883 -69.185547 L -419.54883 -67.285156 C -415.18092 -66.862596 -409.35797 -64.432974 -402.07812 -59.996094 L -392.25 -67.285156 L -355.12305 -66.017578 L -348.57031 -64.75 L -327.27734 -85.349609 L -319.35938 -91.371094 z M -121.16602 -42.564453 L -131.26758 -36.861328 L -145.18945 -38.128906 L -154.19922 -36.861328 L -163.20703 -38.128906 L -169.21289 -11.507812 L -166.48242 -5.4863281 L -168.12109 4.9726562 L -166.48242 10.677734 L -171.39648 19.869141 L -170.30469 49.025391 L -174.12695 66.455078 L -171.39648 74.378906 L -173.03516 86.105469 L -171.39648 91.808594 L -177.13086 103.53516 L -177.13086 124.13477 C -167.12107 125.82501 -159.47711 128.25463 -154.19922 131.42383 L -141.36719 125.40234 L -132.35938 125.40234 L -127.17188 120.96484 L -100.41797 113.99414 L -19.339844 74.378906 L -15.244141 69.941406 C -13.970168 68.462446 -10.330091 66.455282 -4.3242188 63.919922 L -4.3242188 62.019531 L 4.6835938 57.898438 L 21.335938 41.736328 L 27.615234 28.107422 C 21.427366 15.641902 14.693907 6.3458699 7.4140625 0.21875 L 4.6835938 0.21875 L -22.068359 -23.232422 L -39.541016 -26.402344 L -44.455078 -32.107422 L -58.650391 -33.375 L -69.023438 -32.107422 L -71.480469 -38.128906 L -79.125 -41.296875 L -94.412109 -33.375 L -104.24023 -38.128906 L -112.1582 -34.642578 L -121.16602 -42.564453 z "
       id="path4136" />
    <flowRoot
       xml:space="preserve"
       id="flowRoot4138"
       style="font-style:normal;font-weight:normal;font-size:750px;line-height:125%;font-family:'Tw Cen MT';letter-spacing:0px;word-spacing:0px;fill:#000000;fill-opacity:1;stroke:none;stroke-width:1px;stroke-linecap:butt;stroke-linejoin:miter;stroke-opacity:1;-inkscape-font-specification:'Tw Cen MT';font-stretch:normal;font-variant:normal;"><flowRegion
         id="flowRegion4140"><rect
           id="rect4142"
           width="548.57141"
           height="577.14288"
           x="-731.42859"
           y="38.076492"
           style="font-size:750px;-inkscape-font-specification:'Tw Cen MT';font-family:'Tw Cen MT';font-weight:normal;font-style:normal;font-stretch:normal;font-variant:normal;" /></flowRegion><flowPara
         id="flowPara4144"
         style="font-size:750px;-inkscape-font-specification:'Tw Cen MT';font-family:'Tw Cen MT';font-weight:normal;font-style:normal;font-stretch:normal;font-variant:normal;">G</flowPara></flowRoot>    <flowRoot
       xml:space="preserve"
       id="flowRoot4146"
       style="fill:black;stroke:none;stroke-opacity:1;stroke-width:1px;stroke-linejoin:miter;stroke-linecap:butt;fill-opacity:1;font-family:'Tw Cen MT';font-style:normal;font-weight:normal;font-size:90px;line-height:125%;letter-spacing:0px;word-spacing:0px;-inkscape-font-specification:'Tw Cen MT';font-stretch:normal;font-variant:normal;"><flowRegion
         id="flowRegion4148"><rect
           id="rect4150"
           width="597.14288"
           height="425.71429"
           x="-702.85712"
           y="169.50507"
           style="-inkscape-font-specification:'Tw Cen MT';font-family:'Tw Cen MT';font-weight:normal;font-style:normal;font-stretch:normal;font-variant:normal;" /></flowRegion><flowPara
         id="flowPara4152"></flowPara></flowRoot>    <path
       id="path4185"
       d="M -431.42773 -410.74414 A 577.14288 577.14288 0 0 0 -1008.5723 166.40039 A 577.14288 577.14288 0 0 0 -808.82031 602.61719 L -788.0918 590.32422 L -780.17383 581.76758 L -768.43555 576.0625 L -763.52148 571.30859 L -758.33398 568.14062 L -739.49805 549.44141 L -739.49805 546.27148 L -723.11914 527.25781 L -716.56641 521.55273 L -714.38281 512.36133 L -697.45703 492.39648 L -697.45703 484.47266 L -680.25781 453.41406 L -680.25781 448.66016 L -674.52539 446.125 L -664.9707 411.26367 L -666.0625 390.98242 L -661.14844 383.05859 C -662.24041 365.31107 -664.3338 353.69055 -667.42773 348.19727 L -662.24023 324.11133 L -660.05664 322.84375 L -663.87891 311.11719 L -670.1582 306.68164 L -676.16406 284.49609 L -681.34961 284.49609 C -686.08151 288.29913 -689.63014 292.84105 -691.99609 298.12305 L -703.18945 300.66016 L -708.10352 307.94922 L -713.01758 309.84961 L -717.11328 315.87109 L -746.05078 340.27344 L -773.07617 356.75391 L -776.89844 361.19141 L -797.09961 370.38086 L -799.83008 366.89648 L -817.0293 370.38086 L -826.03711 364.35938 L -828.76758 356.75391 L -835.04688 361.19141 L -846.78516 349.46484 L -847.87695 337.73828 L -853.88281 333.93555 C -855.88477 332.66787 -858.5229 329.39333 -861.79883 324.11133 L -860.70703 315.87109 L -869.16992 305.41406 L -866.98633 298.12305 L -871.90039 280.05859 L -862.89062 274.03711 L -865.89453 262.62891 L -870.80859 259.77734 L -870.80859 252.16992 L -862.89062 234.74023 L -869.16992 225.54883 L -865.89453 213.82422 L -859.07031 209.38672 L -863.98242 200.83008 L -863.98242 196.39258 L -857.97656 182.76562 L -859.07031 171.03906 L -851.69922 150.75586 L -848.96875 146.31836 L -850.06055 138.39648 L -835.04688 94.34375 L -831.22461 94.34375 L -827.12891 78.181641 L -820.57812 70.576172 C -818.21218 67.829532 -816.66353 64.977451 -815.93555 62.019531 L -818.93945 54.728516 C -816.20951 51.981876 -813.57138 48.074626 -811.02344 43.003906 L -808.29297 41.736328 L -807.20117 43.003906 L -805.83594 35.396484 C -796.91813 26.522724 -791.91229 17.861356 -790.82031 9.4101562 L -777.99023 -4.2167969 L -761.33789 -19.113281 L -758.88086 -25.134766 C -755.42293 -25.768606 -749.87235 -30.100266 -742.22852 -38.128906 L -741.13672 -36.861328 C -730.76294 -47.425328 -724.39329 -53.234616 -722.02734 -54.291016 L -705.91992 -61.263672 L -703.18945 -64.75 L -696.91016 -66.017578 L -688.99414 -71.720703 L -677.80078 -72.990234 L -671.25 -71.720703 L -664.9707 -69.185547 L -651.04883 -70.453125 L -643.13086 -67.285156 L -642.03906 -63.482422 L -640.94727 -64.75 L -638.2168 -57.460938 L -634.39453 -57.460938 L -625.93164 -41.296875 L -629.20898 -33.375 L -628.11719 -19.113281 L -628.11719 -4.2167969 L -634.39453 3.3886719 L -630.8457 11.945312 L -623.20312 9.4101562 L -616.92383 10.677734 L -616.92383 17.650391 L -620.19922 26.839844 L -609.2793 54.728516 L -612.82812 58.849609 C -613.73811 60.117289 -618.10581 62.652038 -625.93164 66.455078 L -628.11719 76.914062 L -627.02539 88.640625 L -631.9375 98.78125 C -639.94533 102.79557 -646.31693 106.70477 -651.04883 110.50781 L -653.23242 116.5293 L -663.87891 112.4082 C -669.33879 118.32404 -672.70454 123.81795 -673.97852 128.88867 L -686.81055 130.15625 L -691.99609 119.69727 L -690.08594 110.50781 L -695.27344 97.513672 L -687.90234 76.914062 L -688.99414 67.722656 L -686.81055 51.560547 L -686.81055 35.396484 L -684.08008 9.4101562 L -688.99414 -10.238281 L -691.99609 -15.943359 L -694.18164 -15.943359 L -701.82422 -20.380859 L -716.02148 -20.380859 C -727.85123 -14.253739 -734.12944 -10.344537 -734.85742 -8.6542969 L -737.31445 -8.6542969 L -779.08203 39.833984 L -784.26953 53.460938 L -788.0918 55.998047 L -789.18359 63.919922 L -802.01367 80.083984 L -805.83594 102.26758 L -811.56836 109.55664 C -813.75231 112.51456 -815.20756 115.36664 -815.93555 118.11328 L -818.93945 130.15625 L -824.94531 130.15625 L -824.94531 143.15039 L -828.76758 146.31836 L -832.86133 175.47656 L -839.95898 182.76562 L -841.05273 191.63867 L -838.86719 198.92773 L -842.96289 211.28711 L -841.05273 234.74023 L -846.78516 240.44531 L -848.96875 252.16992 L -845.14648 263.89648 L -844.05469 278.79102 L -829.85938 307.94922 L -826.03711 318.40625 L -812.11523 327.28125 L -821.12305 327.28125 L -821.12305 336.4707 L -809.92969 339.00586 L -784.26953 336.4707 L -780.7207 337.73828 C -775.26082 334.78036 -770.61879 331.29557 -766.79688 327.28125 L -764.06836 327.28125 L -757.78906 314.28711 L -737.31445 301.92773 L -732.12695 297.17383 C -730.67098 295.69487 -726.03091 293.05304 -718.20508 289.25 L -718.20508 285.76367 L -709.19531 283.22852 C -708.64932 280.05932 -706.10264 276.36232 -701.55273 272.13672 C -696.82084 267.91112 -692.63406 265.79883 -688.99414 265.79883 C -684.99023 256.92507 -680.71397 250.37404 -676.16406 246.14844 L -676.16406 228.71875 L -653.23242 202.09766 L -645.04297 198.92773 L -624.29492 182.76562 L -616.92383 181.49805 L -607.91406 189.10352 L -604.09375 182.76562 L -592.90039 189.10352 L -600.27148 212.55469 L -605.18555 213.82422 L -604.09375 283.22852 L -601.36328 287.66602 L -601.36328 304.14453 L -605.18555 312.38477 L -604.09375 327.28125 L -606.82227 332.03516 L -606.82227 346.29492 L -620.19922 389.08008 L -626.47852 416.96875 L -630.30078 424.25781 L -630.30078 429.96289 L -634.39453 439.1543 C -640.03641 448.23934 -642.94886 453.62617 -643.13086 455.31641 L -644.49609 452.14648 L -645.58789 456.58398 L -654.32422 463.55664 L -658.41797 472.74609 L -663.33203 478.76758 L -668.51953 491.76172 L -676.16406 501.9043 L -680.25781 511.09375 C -685.17171 515.53063 -690.17755 521.34187 -695.27344 528.52539 L -705.37305 531.69336 L -704.28125 540.25 C -709.37714 544.68688 -713.47247 547.32871 -716.56641 548.17383 L -718.20508 551.97656 L -718.20508 557.68164 L -728.30469 562.43555 L -734.31055 572.89453 L -739.49805 574.16211 L -741.13672 580.5 L -770.07422 599.19727 L -775.25977 605.21875 L -779.08203 603.95117 L -789.18359 616.94531 L -792.28711 616.14453 A 577.14288 577.14288 0 0 0 -431.42773 743.54297 A 577.14288 577.14288 0 0 0 145.71484 166.40039 A 577.14288 577.14288 0 0 0 -431.42773 -410.74414 z M -195.9668 -108.80078 L -190.50586 -104.36523 L -135.08984 -98.34375 L -133.45117 -97.076172 L -79.125 -87.884766 L -75.302734 -77.742188 L -69.023438 -72.990234 L -58.650391 -79.644531 L -56.193359 -79.644531 L -51.279297 -82.179688 L -46.09375 -79.644531 L -37.357422 -79.644531 L -33.261719 -72.990234 L -30.53125 -77.742188 L -18.248047 -76.158203 L -14.425781 -71.720703 C -2.2320412 -69.607903 5.4119253 -65.278196 8.5058594 -58.728516 L 29.798828 -55.558594 L 28.707031 -51.121094 L 32.529297 -47.001953 L 37.716797 -47.001953 L 42.902344 -43.515625 C 44.540309 -42.459225 48.727081 -41.086724 55.460938 -39.396484 L 59.556641 -33.375 L 69.382812 -32.107422 L 75.662109 -12.775391 L 70.476562 -0.4140625 C 69.748578 0.85361748 69.019 5.3955307 68.291016 13.212891 L 71.839844 21.136719 L 60.648438 44.271484 C 59.010472 47.651964 56.917086 50.398919 54.369141 52.511719 C 51.821195 54.624519 47.362052 57.581726 40.992188 61.384766 L 33.621094 65.1875 L 4.6835938 88.640625 L -36.265625 113.99414 L -43.089844 114.31055 L -48.822266 114.94336 C -50.460231 115.15464 -53.736495 116.73935 -58.650391 119.69727 L -63.564453 118.42969 L -67.386719 123.50195 C -68.478695 124.76963 -73.118768 127.83197 -81.308594 132.69141 L -97.142578 135.86133 L -109.42773 146.31836 L -166.48242 165.01758 L -169.21289 162.48242 L -184.22852 169.77148 L -189.41406 169.77148 L -195.9668 179.91211 L -195.9668 196.39258 L -198.42383 211.28711 L -198.42383 228.71875 L -206.06836 236.00781 L -203.33789 239.17773 L -202.24609 244.88086 L -204.42969 247.41602 L -207.16016 267.06641 L -204.42969 269.60156 L -211.25391 278.79102 L -206.06836 284.49609 L -210.16211 290.51758 L -211.25391 306.68164 L -216.16797 312.38477 L -215.07617 320.30859 L -222.44727 339.00586 L -222.44727 353.90234 L -236.36914 387.8125 L -241.55664 396.68555 C -243.19461 399.43219 -245.37943 404.9261 -248.10938 413.16602 L -253.02148 415.70117 L -253.02148 421.40625 L -289.87695 464.18945 L -311.16992 477.18359 L -320.17969 477.18359 L -321.27148 480.66992 L -331.37109 480.66992 L -338.19727 474.64844 C -337.46928 467.25364 -336.10352 461.86681 -334.10156 458.48633 C -336.64951 453.41561 -339.6534 449.50641 -343.11133 446.75977 L -338.19727 437.88477 L -321.27148 421.40625 L -313.90039 418.87109 L -304.07227 418.87109 L -297.24805 430.5957 C -284.50832 419.39786 -277.40909 410.94675 -275.95312 405.24219 L -270.49414 402.70703 L -272.13281 398.27148 L -266.94531 387.8125 L -264.21484 386.54492 L -263.12305 380.52344 L -259.30078 377.35352 L -258.20898 372.91797 L -258.20898 359.92383 L -250.29297 353.90234 L -253.02148 350.73242 L -246.4707 340.27344 L -246.4707 336.4707 L -242.92188 322.84375 L -241.2832 312.06836 C -240.55522 308.4766 -238.91709 303.82761 -236.36914 298.12305 L -239.09961 294.95508 L -235.27734 291.78516 L -239.09961 287.66602 L -234.18555 285.76367 L -236.36914 281.96094 L -230.0918 252.16992 L -230.0918 241.71289 L -226.26953 229.98633 L -231.18359 225.54883 L -226.26953 224.28125 L -221.08203 209.38672 L -232.27539 189.10352 L -235.27734 174.20898 L -235.27734 169.77148 L -232.27539 162.48242 L -218.35156 150.75586 C -216.7136 145.89642 -215.62216 143.36167 -215.07617 143.15039 L -217.25977 137.12891 L -216.16797 130.15625 L -215.07617 128.88867 L -215.07617 113.99414 L -222.44727 107.97266 L -219.99023 104.80273 L -221.08203 91.808594 L -217.25977 83.886719 L -219.99023 80.083984 L -225.17773 80.083984 L -221.08203 67.722656 L -218.35156 66.455078 L -222.44727 63.919922 L -225.17773 50.292969 L -230.0918 49.025391 L -226.26953 43.003906 L -230.0918 37.298828 L -230.0918 29.375 L -234.18555 26.839844 C -232.91157 24.093204 -231.91158 20.608412 -231.18359 16.382812 L -237.46094 11.945312 L -251.38477 23.671875 L -251.38477 28.107422 L -262.03125 37.298828 L -269.40234 45.855469 L -283.32422 53.460938 L -302.16211 74.378906 L -307.34766 67.722656 L -307.34766 63.919922 L -312.26172 59.482422 L -311.44336 53.779297 C -311.26136 52.300337 -308.80416 46.171764 -304.07227 35.396484 L -292.33398 23.671875 L -287.14648 16.382812 L -266.94531 3.3886719 L -264.21484 -2.9492188 L -259.30078 -2.9492188 C -254.93287 -7.3860987 -251.56712 -9.8157213 -249.20117 -10.238281 L -245.37891 -15.943359 C -235.18712 -21.647919 -229.72603 -25.134664 -228.99805 -26.402344 L -228.99805 -30.839844 L -233.36719 -39.712891 C -234.64116 -42.459531 -238.1898 -47.318776 -244.01367 -54.291016 L -246.4707 -67.285156 L -244.01367 -72.990234 L -228.99805 -76.158203 C -221.53621 -87.567323 -213.89419 -96.018439 -206.06836 -101.51172 L -195.9668 -108.80078 z M -319.35938 -91.371094 L -314.44531 -89.152344 L -313.35352 -76.158203 L -301.61523 -71.720703 L -301.61523 -67.285156 L -309.53125 -61.263672 L -311.7168 -53.023438 C -324.45653 -47.741438 -336.01294 -40.769902 -346.38672 -32.107422 C -351.8466 -24.501342 -356.48668 -19.535017 -360.30859 -17.210938 L -393.3418 1.4863281 L -389.24609 7.5078125 L -397.16406 26.839844 C -397.71005 32.544404 -399.34818 39.410813 -402.07812 47.439453 L -405.62695 57.898438 L -416.27344 115.26172 L -423.37109 169.77148 L -427.46484 168.50391 L -427.46484 211.28711 L -430.19531 211.28711 L -427.46484 218.25977 L -428.55859 225.54883 L -425.00781 275.62305 L -426.37305 280.05859 L -421.1875 285.76367 L -394.43359 283.22852 L -387.88086 286.08008 C -383.14896 288.19288 -379.87465 290.09492 -378.05469 291.78516 C -387.51849 307.63116 -394.25194 315.65981 -398.25586 315.87109 L -400.43945 321.57617 L -408.35547 320.30859 L -416.27344 333.30273 L -422.2793 334.57031 L -425.82812 339.95703 C -426.9201 341.43599 -430.74111 344.6054 -437.29297 349.46484 L -444.11914 348.19727 L -458.04102 353.90234 L -480.42578 356.75391 L -522.4668 365.62891 L -532.56836 370.38086 L -540.21289 364.35938 L -546.49023 366.89648 L -548.12891 349.46484 L -531.47656 332.03516 L -528.74609 327.91406 C -527.83611 326.64638 -525.0151 324.53409 -520.2832 321.57617 L -518.37305 314.28711 L -517.28125 317.13867 L -504.99609 307.94922 L -488.34375 304.14453 L -482.06445 305.41406 L -473.60156 301.29297 C -470.68962 300.02529 -466.68574 296.85588 -461.58984 291.78516 L -461.58984 283.22852 L -465.41211 277.52344 L -463.22852 250.90234 L -465.41211 246.14844 L -461.58984 234.74023 L -463.22852 216.99219 L -466.50391 213.82422 L -461.58984 205.26562 L -463.22852 196.39258 L -460.22461 185.93359 L -463.22852 179.91211 C -459.95259 171.67219 -456.40395 165.22824 -452.58203 160.58008 L -458.04102 152.02344 L -452.58203 135.86133 C -453.12802 133.11469 -455.67471 129.62794 -460.22461 125.40234 L -452.58203 112.4082 L -463.22852 106.07031 L -458.04102 96.246094 L -460.22461 83.886719 L -458.04102 67.722656 L -458.04102 59.482422 L -451.48828 50.292969 C -450.03231 39.517689 -448.30469 31.699284 -446.30273 26.839844 L -442.48047 23.671875 L -447.39453 7.5078125 L -444.11914 -2.9492188 L -452.58203 -6.7539062 L -469.23438 -1.0488281 L -477.15039 7.5078125 C -479.69834 8.9867725 -482.15553 10.888811 -484.52148 13.212891 L -489.43555 13.212891 L -494.07617 4.3398438 C -495.53214 1.5932038 -497.3512 -4.7456214 -499.53516 -14.675781 L -494.34961 -25.767578 C -491.98366 -30.204458 -486.97782 -32.74116 -479.33398 -33.375 L -479.33398 -38.128906 L -475.51172 -39.396484 L -471.96289 -45.099609 L -466.50391 -45.099609 C -460.86203 -48.902649 -455.49238 -53.446516 -450.39648 -58.728516 L -441.38867 -59.996094 C -433.19885 -66.123214 -428.55682 -69.185547 -427.46484 -69.185547 L -419.54883 -69.185547 L -419.54883 -67.285156 C -415.18092 -66.862596 -409.35797 -64.432974 -402.07812 -59.996094 L -392.25 -67.285156 L -355.12305 -66.017578 L -348.57031 -64.75 L -327.27734 -85.349609 L -319.35938 -91.371094 z M -121.16602 -42.564453 L -131.26758 -36.861328 L -145.18945 -38.128906 L -154.19922 -36.861328 L -163.20703 -38.128906 L -169.21289 -11.507812 L -166.48242 -5.4863281 L -168.12109 4.9726562 L -166.48242 10.677734 L -171.39648 19.869141 L -170.30469 49.025391 L -174.12695 66.455078 L -171.39648 74.378906 L -173.03516 86.105469 L -171.39648 91.808594 L -177.13086 103.53516 L -177.13086 124.13477 C -167.12107 125.82501 -159.47711 128.25463 -154.19922 131.42383 L -141.36719 125.40234 L -132.35938 125.40234 L -127.17188 120.96484 L -100.41797 113.99414 L -19.339844 74.378906 L -15.244141 69.941406 C -13.970168 68.462446 -10.330091 66.455282 -4.3242188 63.919922 L -4.3242188 62.019531 L 4.6835938 57.898438 L 21.335938 41.736328 L 27.615234 28.107422 C 21.427366 15.641902 14.693907 6.3458699 7.4140625 0.21875 L 4.6835938 0.21875 L -22.068359 -23.232422 L -39.541016 -26.402344 L -44.455078 -32.107422 L -58.650391 -33.375 L -69.023438 -32.107422 L -71.480469 -38.128906 L -79.125 -41.296875 L -94.412109 -33.375 L -104.24023 -38.128906 L -112.1582 -34.642578 L -121.16602 -42.564453 z "
       style="opacity:1;fill:url(#linearGradient4203);fill-opacity:1" />
    <path
       style="opacity:1;fill:url(#radialGradient4195);fill-opacity:1"
       d="m -392.85635,754.97015 a 544.28578,54.28632 0 0 0 -544.28734,54.28647 544.28578,54.28632 0 0 0 188.37995,41.03075 l 19.54842,-1.15627 7.4672,-0.80485 11.07001,-0.53662 4.6343,-0.44716 4.89217,-0.29798 17.7636,-1.75884 0,-0.29818 15.44645,-1.78842 6.17967,-0.53663 2.05929,-0.86455 15.96219,-1.87792 0,-0.74531 16.22005,-2.92138 0,-0.44716 5.40607,-0.23844 9.01074,-3.27909 -1.02965,-1.90767 4.63431,-0.74531 c -1.02981,-1.66935 -3.00402,-2.76237 -5.92182,-3.27907 l 4.89219,-2.26553 2.05927,-0.11921 -3.60467,-1.103 -5.9218,-0.41722 -5.66394,-2.08678 -4.89034,0 c -4.46251,0.35773 -7.80911,0.78493 -10.04037,1.28176 l -10.55611,0.23864 -4.63432,0.68562 -4.63429,0.17876 -3.86253,0.56638 -27.29007,2.29529 -25.48682,1.55016 -3.60466,0.4174 -19.05111,0.86435 -2.57502,-0.32774 -16.22006,0.32774 -8.49499,-0.56637 -2.57502,-0.71538 -5.92182,0.4174 -11.07001,-1.103 -1.02964,-1.10303 -5.66393,-0.35768 c -1.88799,-0.1192 -4.37593,-0.42724 -7.46536,-0.92406 l 1.02964,-0.77508 -7.98109,-0.9836 2.05928,-0.6858 -4.6343,-1.69916 8.49683,-0.56637 -2.83289,-1.07305 -4.6343,-0.26822 0,-0.71555 7.46719,-1.63946 -5.92181,-0.86456 3.08892,-1.10281 6.43572,-0.41738 -4.63247,-0.80485 0,-0.4174 5.66394,-1.28176 -1.03147,-1.10299 6.95144,-1.90785 2.57502,-0.4174 -1.02964,-0.74514 14.15893,-4.14362 3.60467,0 3.86253,-1.52022 6.17785,-0.71535 c 2.23124,-0.25837 3.69172,-0.52664 4.37826,-0.80485 l -2.83288,-0.68579 c 2.57452,-0.25836 5.06246,-0.62587 7.46535,-1.10283 l 2.57501,-0.11921 1.02965,0.11921 1.28751,-0.71557 c 8.41011,-0.83467 13.13097,-1.64935 14.16078,-2.44428 l 12.09965,-1.28176 15.70431,-1.40117 2.31715,-0.56638 c 3.26107,-0.0597 8.49565,-0.46705 15.70431,-1.22224 l 1.02964,0.1192 c 9.7832,-0.99364 15.79022,-1.54007 18.02147,-1.63945 l 15.19042,-0.65584 2.57503,-0.32791 5.9218,-0.11921 7.46536,-0.53645 10.55611,-0.11933 6.17784,0.11933 5.92182,0.23846 13.12929,-0.11921 7.4672,0.29799 1.02964,0.3577 1.02963,-0.11922 2.57502,0.68561 3.60467,0 7.98109,1.5204 -3.09076,0.74513 1.02964,1.34146 0,1.40118 -5.91997,0.71537 3.34679,0.80485 7.20748,-0.23847 5.92181,0.11921 0,0.65584 -3.08892,0.86437 10.29824,2.62322 -3.34679,0.38764 c -0.85818,0.11921 -4.97722,0.35766 -12.35752,0.71535 l -2.06112,0.98379 1.02964,1.10302 -4.63246,0.95382 c -7.55194,0.37759 -13.5608,0.74529 -18.02331,1.103 l -2.05928,0.5664 -10.04038,-0.38765 c -5.14905,0.55645 -8.32318,1.07321 -9.52463,1.55016 l -12.10149,0.11921 -4.89033,-0.98377 1.80141,-0.86437 -4.89218,-1.22225 6.95147,-1.93759 -1.02965,-0.86455 2.05928,-1.52021 0,-1.5204 2.57502,-2.4443 -4.6343,-1.84813 -2.83105,-0.53661 -2.06113,0 -7.20747,-0.4174 -13.38901,0 c -11.15628,0.57631 -17.07706,0.94401 -17.7636,1.103 l -2.31714,0 -39.38973,4.56082 -4.89217,1.28176 -3.60467,0.23864 -1.02964,0.74513 -12.09965,1.5204 -3.60466,2.08661 -5.40608,0.68561 c -2.05961,0.27823 -3.43201,0.54649 -4.11856,0.80483 l -2.83288,1.13278 -5.66394,0 0,1.22222 -3.60467,0.29801 -3.86069,2.74262 -6.69358,0.68561 -1.03148,0.8346 2.06112,0.68561 -3.86254,1.16254 1.80142,2.206 -5.40608,0.53664 -2.05928,1.10282 3.60467,1.103 1.02963,1.40099 13.38716,2.74262 3.60467,0.98359 13.1293,0.83479 -8.495,0 0,0.86438 10.55612,0.23844 24.19931,-0.23844 3.34679,0.1192 c 5.14904,-0.27821 9.5268,-0.60599 13.13112,-0.98359 l 2.57319,0 5.92182,-1.22222 19.30898,-1.16254 4.89217,-0.44716 c 1.37307,-0.13904 5.74899,-0.3876 13.12929,-0.74531 l 0,-0.32793 8.49683,-0.23846 c 0.51491,-0.2981 2.91661,-0.64583 7.20748,-1.0433 4.4625,-0.39746 8.41093,-0.59616 11.84363,-0.59616 3.77596,-0.83466 7.80877,-1.45086 12.09966,-1.8483 l 0,-1.63945 21.62612,-2.504 7.72322,-0.29816 19.56685,-1.52022 6.95145,-0.11921 8.49684,0.71537 3.60281,-0.59614 10.55612,0.59614 -6.95145,2.20582 -4.63431,0.11949 1.02964,6.5282 2.57503,0.41739 0,1.54996 -3.60467,0.77509 1.02964,1.40116 -2.57318,0.44716 0,1.34129 -12.61539,4.02438 -5.92182,2.62322 -3.60465,0.68562 0,0.53662 -3.86069,0.86455 c -5.32068,0.85454 -8.06733,1.36125 -8.23896,1.52022 l -1.28751,-0.29817 -1.02965,0.41739 -8.23896,0.65586 -3.86069,0.86435 -4.6343,0.56638 -4.89218,1.22225 -7.20931,0.95403 -3.8607,0.86434 c -4.63415,0.41735 -9.355,0.96394 -14.16078,1.63964 l -9.52463,0.29797 1.02964,0.80485 c -4.80578,0.41734 -8.66795,0.66582 -11.58576,0.74531 l -1.54537,0.3577 0,0.53661 -9.52464,0.44715 -5.66394,0.98379 -4.89217,0.1192 -1.54539,0.59615 -27.29007,1.75867 -4.89033,0.56638 -3.60465,-0.11921 -9.52648,1.22225 -2.92683,-0.0754 a 544.28578,54.28632 0 0 0 340.31544,11.98315 544.28578,54.28632 0 0 0 544.28548,-54.2863 544.28578,54.28632 0 0 0 -544.28548,-54.28645 z m 222.05598,28.40093 5.15005,0.4172 52.26115,0.5664 1.54537,0.1192 51.233361,0.86454 3.604654,0.95402 5.921821,0.44696 9.782504,-0.6259 2.317147,0 4.634304,-0.23846 4.890332,0.23846 8.238958,0 3.862531,0.6259 2.575025,-0.44696 11.5839155,0.14898 3.60465434,0.4174 C 11.904953,787.05756 19.113744,787.4648 22.031537,788.08086 l 20.080747,0.29818 -1.029639,0.41739 3.604662,0.38743 4.892171,0 4.890331,0.32794 c 1.544715,0.0994 5.493131,0.22846 11.843625,0.38744 l 3.862533,0.5664 9.266761,0.11919 5.921812,1.81839 -4.89033,1.16273 c -0.68654,0.1192 -1.374582,0.54645 -2.061122,1.28176 l 3.346791,0.74531 -10.554272,2.17606 c -1.544716,0.31797 -3.518924,0.57636 -5.921812,0.77509 -2.402891,0.19874 -6.608171,0.47688 -12.615395,0.8346 l -6.951453,0.3577 -27.290071,2.206 -38.617955,2.38475 -6.435707,0.0298 -5.406076,0.0596 c -1.544718,0.0198 -4.634456,0.16891 -9.268598,0.44715 l -4.634304,-0.11921 -3.604665,0.47708 c -1.029811,0.11922 -5.405722,0.40731 -13.1293,0.86438 l -14.932542,0.29817 -11.585745,0.98359 -53.806534,1.75886 -2.57502,-0.23846 -14.16078,0.68561 -4.89033,0 -6.17969,0.95385 0,1.55015 -2.31715,1.40097 0,1.63964 -7.20932,0.68561 2.57503,0.29816 1.02964,0.53644 -2.05929,0.23847 -2.57503,1.84832 2.57503,0.23846 -6.43571,0.86436 4.89033,0.53661 -3.86069,0.56638 -1.02964,1.5204 -4.6343,0.53646 1.02964,0.7453 -6.95145,1.75868 0,1.40118 -13.12929,3.1896 -4.89218,0.8346 c -1.54472,0.25835 -3.60515,0.77512 -6.17968,1.55016 l -4.63246,0.23845 0,0.53663 -34.75726,4.02421 -20.08075,1.22223 -8.49684,0 -1.02963,0.32795 -9.52464,0 -6.43756,-0.56641 c 0.68655,-0.69555 1.97456,-1.20224 3.86254,-1.5202 -2.40289,-0.47695 -5.23577,-0.84467 -8.49684,-1.10302 l 4.6343,-0.83479 15.9622,-1.54997 6.95145,-0.23847 9.2686,0 6.43571,1.10283 c 12.01445,-1.05328 18.70951,-1.84819 20.0826,-2.38476 l 5.1482,-0.23846 -1.54539,-0.4172 4.89217,-0.98378 2.57503,-0.11921 1.02963,-0.56637 3.60467,-0.29817 1.02964,-0.41721 0,-1.22223 7.46535,-0.56637 -2.57318,-0.29818 6.17784,-0.98378 0,-0.35769 3.34679,-1.28176 1.54538,-1.01354 c 0.68654,-0.33783 2.23141,-0.77513 4.63431,-1.31169 l -2.57503,-0.298 3.60467,-0.29815 -3.60467,-0.38744 4.6343,-0.17893 -2.05927,-0.3577 5.91996,-2.80215 0,-0.9836 3.60466,-1.10301 -4.63429,-0.41739 4.63429,-0.11921 4.89218,-1.40098 -10.55611,-1.90785 -2.83105,-1.40101 0,-0.41738 2.83105,-0.68561 13.13113,-1.103 c 1.54472,-0.45709 2.57401,-0.69552 3.08892,-0.71539 l -2.05928,-0.56636 1.02964,-0.65586 1.02964,-0.11921 0,-1.40098 -6.95145,-0.56639 2.31715,-0.29817 -1.02964,-1.22223 3.60466,-0.74512 -2.57502,-0.35769 -4.89217,0 3.86253,-1.16271 2.57502,-0.11921 -3.86253,-0.23846 -2.57502,-1.28176 -4.63431,-0.11921 3.60466,-0.56637 -3.60466,-0.53663 0,-0.74531 -3.86069,-0.23846 c 1.20145,-0.25836 2.14451,-0.58614 2.83106,-0.9836 l -5.91998,-0.41739 -13.13113,1.103 0,0.41721 -10.04037,0.86455 -6.95145,0.80484 -13.12931,0.71537 -17.76543,1.96756 -4.89033,-0.6261 0,-0.35769 -4.6343,-0.41738 0.77177,-0.53644 c 0.17163,-0.13905 2.48895,-0.71557 6.95145,-1.7291 l 11.07002,-1.10282 4.89217,-0.68561 19.0511,-1.22224 2.57503,-0.59615 4.6343,0 c 4.11924,-0.41733 7.29337,-0.64586 9.52463,-0.68561 l 3.60466,-0.53661 c 9.61156,-0.53659 14.76175,-0.86454 15.44829,-0.98379 l 0,-0.41739 -4.12041,-0.83461 c -1.20145,-0.25835 -4.54805,-0.71541 -10.04037,-1.37122 l -2.31715,-1.22223 2.31715,-0.53663 14.16078,-0.29798 c 7.03703,-1.07314 14.24398,-1.86807 21.62428,-2.38476 l 9.52647,-0.6856 z m -116.36776,1.63944 4.63431,0.2087 1.02964,1.22223 11.07002,0.41741 0,0.41719 -7.46536,0.56639 -2.06113,0.77509 c -12.01445,0.49682 -22.91294,1.15256 -32.69614,1.96735 -5.14904,0.71544 -9.52495,1.18256 -13.12929,1.40118 l -31.15261,1.75867 3.86254,0.56641 -7.46719,1.81837 c -0.51491,0.53656 -2.05978,1.18242 -4.6343,1.9376 l -3.34679,0.98377 -10.04038,5.39562 -6.69358,5.1272 -3.86069,-0.1192 0,4.02421 -2.57502,0 2.57502,0.65584 -1.03148,0.68562 3.34863,4.71 -1.28752,0.4172 4.89033,0.53664 25.2308,-0.23846 6.17968,0.26821 c 4.46251,0.19873 7.55041,0.37765 9.26676,0.53662 -8.92502,1.49048 -15.27513,2.24567 -19.0511,2.26554 l -2.05928,0.53663 -7.46536,-0.11921 -7.46719,1.22223 -5.66395,0.11921 -3.34677,0.5067 c -1.02982,0.13904 -4.6333,0.43722 -10.81216,0.89431 l -6.43755,-0.11921 -13.1293,0.53663 -21.11038,0.26822 -39.6476,0.83478 -9.52647,0.44697 -7.20932,-0.56639 -5.91997,0.23864 -1.54539,-1.63962 15.70432,-1.63945 2.57503,-0.38763 c 0.85817,-0.1192 3.51858,-0.31793 7.98109,-0.59614 l 1.8014,-0.68561 1.02964,0.26819 11.58577,-0.86434 15.7043,-0.35788 5.92182,0.11934 7.98109,-0.38762 c 2.74616,-0.11921 6.52211,-0.41736 11.32789,-0.89432 l 0,-0.80483 -3.60466,-0.53663 2.05927,-2.50398 -2.05927,-0.44715 3.60466,-1.07308 -1.54539,-1.66937 -3.08892,-0.29797 4.63431,-0.80505 -1.54539,-0.8346 2.8329,-0.98378 -2.8329,-0.56637 c 3.08943,-0.77507 6.43605,-1.38118 10.04038,-1.81839 l -5.14821,-0.80484 5.14821,-1.52021 c -0.51491,-0.25836 -2.91661,-0.58633 -7.20748,-0.98379 l 7.20748,-1.22222 -10.04038,-0.59616 4.89217,-0.92407 -2.05927,-1.16252 2.05927,-1.5204 0,-0.77508 6.17969,-0.86436 c 1.37308,-1.01354 3.00235,-1.74895 4.89034,-2.20602 l 3.60465,-0.29798 -4.6343,-1.5204 3.08892,-0.98359 -7.98109,-0.35786 -15.70433,0.5366 -7.46534,0.80485 c -2.40289,0.13906 -4.72019,0.31803 -6.95144,0.53662 l -4.63432,0 -4.37643,-0.8346 c -1.37307,-0.25835 -3.08857,-0.85458 -5.1482,-1.78863 l 4.89034,-1.04328 c 2.23125,-0.41734 6.95211,-0.65594 14.16078,-0.71556 l 0,-0.44716 3.60465,-0.11921 3.3468,-0.53644 5.14819,0 c 5.32069,-0.35771 10.38464,-0.78513 15.19043,-1.28195 l 8.49498,-0.11921 c 7.72357,-0.57633 12.10133,-0.86437 13.13114,-0.86437 l 7.46535,0 0,0.17876 c 4.11924,0.0396 9.61069,0.26828 16.47609,0.68561 l 9.2686,-0.68561 35.01329,0.11921 6.17968,0.11921 20.08076,-1.93763 7.46718,-0.56638 z m 186.91009,4.59077 -9.52648,0.53644 -13.12929,-0.1192 -8.49683,0.1192 -8.49499,-0.1192 -5.66394,2.50398 2.57502,0.5664 -1.54538,0.98377 1.54538,0.53663 -4.6343,0.86455 1.02963,2.74245 -3.60466,1.63944 2.57503,0.74534 -1.54539,1.10298 1.54539,0.53644 -5.40792,1.10301 0,1.93761 c 9.43993,0.15899 16.64871,0.38751 21.62613,0.68563 l 12.1015,-0.56641 8.49498,0 4.89218,-0.41739 25.23079,-0.65565 76.4623026,-3.72622 3.86253146,-0.4174 C 0.83508792,800.04465 4.2679302,799.85575 9.9318842,799.6173 l 0,-0.17875 8.4949918,-0.38765 15.704317,-1.5202 5.921811,-1.28196 c -5.835588,-1.17249 -12.185708,-2.04688 -19.051107,-2.62321 l -2.575021,0 -25.2289484,-2.20583 -16.4779266,-0.29816 -4.634304,-0.53662 -13.387157,-0.11922 -9.782504,0.11922 -2.317157,-0.56639 -7.209318,-0.29797 -14.416807,0.74513 -9.268598,-0.44716 -7.4672,0.32794 -8.494996,-0.74515 z"
       id="path4187"
       inkscape:connector-curvature="0" />
  </g>
</svg>
